<?xml version="1.0" encoding="UTF-8"?>
<svg version="1.1" xmlns="http://www.w3.org/2000/svg" width="512" height="512">
<path d="M0 0 C2.20090914 -0.00435401 4.40181676 -0.00953945 6.60272217 -0.01548767 C12.54920238 -0.02881576 18.49561879 -0.02946318 24.44211102 -0.02692437 C29.42176387 -0.02585029 34.40140404 -0.03074924 39.38105416 -0.03552979 C51.80893567 -0.04723572 64.23678894 -0.04641221 76.66467145 -0.03997298 C87.41916313 -0.03480828 98.1735641 -0.04605263 108.92803785 -0.0650712 C120.01057243 -0.08451736 131.09306216 -0.09240332 142.17561364 -0.08894795 C148.38161149 -0.08714264 154.58752628 -0.08969565 160.79351044 -0.10366249 C166.63443746 -0.11631718 172.47518417 -0.11422497 178.3161087 -0.1012516 C180.44723067 -0.09890271 182.57836562 -0.10155918 184.70947266 -0.10987473 C224.1288213 -0.25247443 257.6821255 12.95603698 287.04785156 39.2746582 C287.83804687 39.97977539 288.62824219 40.68489258 289.44238281 41.41137695 C300.47457402 51.8472335 309.08535056 64.86315954 316.04785156 78.2746582 C316.65242188 79.4193457 317.25699219 80.5640332 317.87988281 81.7434082 C321.51488902 88.89663722 324.12811691 96.19589476 326.36035156 103.8996582 C326.60285645 104.73376221 326.84536133 105.56786621 327.09521484 106.42724609 C331.02863799 120.72516973 331.34183368 134.50541619 331.32250977 149.22680664 C331.32686378 151.42771578 331.33204921 153.6286234 331.33799744 155.82952881 C331.35132553 161.77600902 331.35197295 167.72242543 331.34943414 173.66891766 C331.34836006 178.64857051 331.353259 183.62821068 331.35803956 188.6078608 C331.36974549 201.03574231 331.36892197 213.46359558 331.36248275 225.89147809 C331.35731804 236.64596977 331.3685624 247.40037075 331.38758097 258.15484449 C331.40702713 269.23737907 331.41491309 280.3198688 331.41145772 291.40242028 C331.40965241 297.60841813 331.41220541 303.81433292 331.42617226 310.02031708 C331.43882695 315.8612441 331.43673473 321.70199081 331.42376137 327.54291534 C331.42141247 329.67403731 331.42406894 331.80517226 331.43238449 333.9362793 C331.57410912 373.11372993 318.55424902 409.03095901 290.95800781 437.3605957 C289.98969712 438.33368582 289.01971872 439.30512007 288.04785156 440.2746582 C287.2009375 441.13317383 286.35402344 441.99168945 285.48144531 442.8762207 C257.11185567 470.16300158 220.4904094 480.5997149 182.09570312 480.54931641 C179.89479399 480.55367042 177.69388636 480.55885585 175.49298096 480.56480408 C169.54650074 480.57813217 163.60008433 480.57877959 157.65359211 480.57624078 C152.67393926 480.5751667 147.69429908 480.58006565 142.71464896 480.5848462 C130.28676745 480.59655213 117.85891419 480.59572861 105.43103167 480.58928939 C94.67654 480.58412469 83.92213902 480.59536904 73.16766527 480.61438761 C62.08513069 480.63383377 51.00264096 480.64171973 39.92008948 480.63826436 C33.71409164 480.63645905 27.50817684 480.63901205 21.30219269 480.6529789 C15.46126566 480.66563359 9.62051896 480.66354138 3.77959442 480.65056801 C1.64847246 480.64821911 -0.4826625 480.65087558 -2.61376953 480.65919113 C-41.79122017 480.80091576 -77.70844924 467.78105566 -106.03808594 440.18481445 C-107.01117605 439.21650376 -107.9826103 438.24652536 -108.95214844 437.2746582 C-109.81066406 436.42774414 -110.66917969 435.58083008 -111.55371094 434.70825195 C-138.84049182 406.33866231 -149.27720513 369.71721604 -149.22680664 331.32250977 C-149.23116065 329.12160063 -149.23634609 326.920693 -149.24229431 324.7197876 C-149.2556224 318.77330739 -149.25626982 312.82689098 -149.25373101 306.88039875 C-149.25265694 301.9007459 -149.25755588 296.92110572 -149.26233643 291.9414556 C-149.27404237 279.51357409 -149.27321885 267.08572083 -149.26677962 254.65783831 C-149.26161492 243.90334664 -149.27285927 233.14894566 -149.29187784 222.39447191 C-149.311324 211.31193733 -149.31920996 200.22944761 -149.31575459 189.14689612 C-149.31394928 182.94089828 -149.31650229 176.73498349 -149.33046913 170.52899933 C-149.34312382 164.6880723 -149.34103161 158.8473256 -149.32805824 153.00640106 C-149.32570935 150.8752791 -149.32836582 148.74414414 -149.33668137 146.61303711 C-149.47928107 107.19368847 -136.27076966 73.64038426 -109.95214844 44.2746582 C-109.24703125 43.48446289 -108.54191406 42.69426758 -107.81542969 41.88012695 C-97.37957314 30.84793574 -84.36364711 22.2371592 -70.95214844 15.2746582 C-69.23511719 14.36780273 -69.23511719 14.36780273 -67.48339844 13.44262695 C-60.33016942 9.80762074 -53.03091188 7.19439286 -45.32714844 4.9621582 C-44.49304443 4.71965332 -43.65894043 4.47714844 -42.79956055 4.22729492 C-28.50163691 0.29387178 -14.72139045 -0.01932391 0 0 Z M-19.86621094 113.90356445 C-22.52969412 116.93115676 -25.27078019 119.88251385 -28.01464844 122.8371582 C-32.09615619 127.23568853 -36.09921208 131.67253977 -39.95214844 136.2746582 C-43.27650636 133.55727574 -46.39024017 131.00684171 -49.01464844 127.5871582 C-52.21730925 123.76462756 -55.43428993 122.47141764 -60.32714844 121.8371582 C-66.24020229 122.55080263 -70.2942601 124.57532266 -74.45214844 128.8371582 C-76.54787285 133.63985999 -77.20370291 138.14732215 -75.95214844 143.2746582 C-72.30502816 149.32996703 -67.19846325 154.39191519 -62.32714844 159.4621582 C-58.35202803 163.62116705 -54.53633861 167.76953028 -50.95214844 172.2746582 C-47.38165414 174.90554874 -44.38459294 176.00871153 -39.95214844 176.2746582 C-32.05040639 174.74976062 -28.12195841 170.62115346 -23.10449219 164.74731445 C-20.44929869 161.69697419 -17.70468568 158.73700155 -14.95214844 155.7746582 C-11.18552269 151.71416996 -7.47625042 147.62122741 -3.85839844 143.42700195 C-1.79323957 141.09523446 0.32627097 138.82099913 2.45288086 136.54541016 C14.23679602 124.95010685 14.23679602 124.95010685 18.32519531 109.8137207 C17.77414873 104.76892805 15.04273912 102.17479457 11.42285156 98.8996582 C-2.5543095 92.16991399 -11.53414195 104.23308619 -19.86621094 113.90356445 Z M31.04785156 134.3371582 C27.62069337 139.37079681 27.39016496 143.25358372 28.04785156 149.2746582 C30.39577814 154.1511211 33.3354601 156.67803434 38.04785156 159.2746582 C42.38824521 160.46100683 46.71507892 160.42020901 51.18133545 160.4151001 C51.99596795 160.41807122 52.81060046 160.42104234 53.64991879 160.4241035 C56.37730006 160.43276915 59.10463732 160.43429694 61.83203125 160.43579102 C63.78858534 160.44042069 65.74513853 160.44544555 67.70169067 160.45083618 C73.01587866 160.46394758 78.33005401 160.47040266 83.64425564 160.47484684 C86.96556963 160.47777953 90.28688018 160.48188471 93.60819244 160.48635101 C104.00339325 160.50002248 114.39858618 160.50969092 124.79379535 160.5135529 C136.78695238 160.51803325 148.77999541 160.5355816 160.77311778 160.5645535 C170.04801947 160.58618003 179.32288912 160.5962577 188.59781575 160.59759402 C194.13522936 160.59864133 199.67253576 160.60453343 205.20992279 160.62241364 C210.420359 160.63891109 215.63060759 160.64104163 220.84106064 160.63227463 C222.74978259 160.63150516 224.65851471 160.63583502 226.56721115 160.64573288 C229.18050679 160.65848616 231.79314128 160.65255741 234.40643311 160.64215088 C235.52927834 160.65423549 235.52927834 160.65423549 236.67480731 160.66656423 C242.51168648 160.61250476 249.16699885 159.83418158 253.68206477 155.82272458 C257.71905408 151.06221636 258.40389088 147.88202372 258.32519531 141.8137207 C257.91408712 138.05005418 256.56498796 136.05675633 254.04785156 133.2746582 C247.84469117 128.39131917 242.58284755 128.1254444 234.91436768 128.13421631 C234.09973517 128.13124519 233.28510267 128.12827406 232.44578433 128.12521291 C229.71840307 128.11654726 226.99106581 128.11501947 224.26367188 128.11352539 C222.30711778 128.10889572 220.35056459 128.10387085 218.39401245 128.09848022 C213.07982447 128.08536883 207.76564911 128.07891375 202.45144749 128.07446957 C199.13013349 128.07153687 195.80882294 128.0674317 192.48751068 128.06296539 C182.09230988 128.04929393 171.69711695 128.03962549 161.30190778 128.0357635 C149.30875075 128.03128315 137.31570771 128.0137348 125.32258534 127.98476291 C116.04768365 127.96313638 106.77281401 127.9530587 97.49788737 127.95172238 C91.96047376 127.95067508 86.42316736 127.94478297 80.88578033 127.92690277 C75.67534413 127.91040532 70.46509553 127.90827478 65.25464249 127.91704178 C63.34592053 127.91781125 61.43718842 127.91348138 59.52849197 127.90358353 C56.91519634 127.89083024 54.30256184 127.896759 51.68927002 127.90716553 C50.94070653 127.89910912 50.19214304 127.89105272 49.42089581 127.88275218 C42.70140836 127.94498611 35.58377315 128.98829786 31.04785156 134.3371582 Z M-19.86621094 209.90356445 C-22.52969412 212.93115676 -25.27078019 215.88251385 -28.01464844 218.8371582 C-32.09615619 223.23568853 -36.09921208 227.67253977 -39.95214844 232.2746582 C-43.27650636 229.55727574 -46.39024017 227.00684171 -49.01464844 223.5871582 C-52.21730925 219.76462756 -55.43428993 218.47141764 -60.32714844 217.8371582 C-66.24020229 218.55080263 -70.2942601 220.57532266 -74.45214844 224.8371582 C-76.54787285 229.63985999 -77.20370291 234.14732215 -75.95214844 239.2746582 C-72.30502816 245.32996703 -67.19846325 250.39191519 -62.32714844 255.4621582 C-58.35202803 259.62116705 -54.53633861 263.76953028 -50.95214844 268.2746582 C-47.38165414 270.90554874 -44.38459294 272.00871153 -39.95214844 272.2746582 C-32.05040639 270.74976062 -28.12195841 266.62115346 -23.10449219 260.74731445 C-20.44929869 257.69697419 -17.70468568 254.73700155 -14.95214844 251.7746582 C-11.18552269 247.71416996 -7.47625042 243.62122741 -3.85839844 239.42700195 C-1.79323957 237.09523446 0.32627097 234.82099913 2.45288086 232.54541016 C14.23679602 220.95010685 14.23679602 220.95010685 18.32519531 205.8137207 C17.77414873 200.76892805 15.04273912 198.17479457 11.42285156 194.8996582 C-2.5543095 188.16991399 -11.53414195 200.23308619 -19.86621094 209.90356445 Z M31.04785156 230.3371582 C27.62069337 235.37079681 27.39016496 239.25358372 28.04785156 245.2746582 C30.39577814 250.1511211 33.3354601 252.67803434 38.04785156 255.2746582 C42.38824521 256.46100683 46.71507892 256.42020901 51.18133545 256.4151001 C51.99596795 256.41807122 52.81060046 256.42104234 53.64991879 256.4241035 C56.37730006 256.43276915 59.10463732 256.43429694 61.83203125 256.43579102 C63.78858534 256.44042069 65.74513853 256.44544555 67.70169067 256.45083618 C73.01587866 256.46394758 78.33005401 256.47040266 83.64425564 256.47484684 C86.96556963 256.47777953 90.28688018 256.48188471 93.60819244 256.48635101 C104.00339325 256.50002248 114.39858618 256.50969092 124.79379535 256.5135529 C136.78695238 256.51803325 148.77999541 256.5355816 160.77311778 256.5645535 C170.04801947 256.58618003 179.32288912 256.5962577 188.59781575 256.59759402 C194.13522936 256.59864133 199.67253576 256.60453343 205.20992279 256.62241364 C210.420359 256.63891109 215.63060759 256.64104163 220.84106064 256.63227463 C222.74978259 256.63150516 224.65851471 256.63583502 226.56721115 256.64573288 C229.18050679 256.65848616 231.79314128 256.65255741 234.40643311 256.64215088 C235.52927834 256.65423549 235.52927834 256.65423549 236.67480731 256.66656423 C242.51168648 256.61250476 249.16699885 255.83418158 253.68206477 251.82272458 C257.71905408 247.06221636 258.40389088 243.88202372 258.32519531 237.8137207 C257.91408712 234.05005418 256.56498796 232.05675633 254.04785156 229.2746582 C247.84469117 224.39131917 242.58284755 224.1254444 234.91436768 224.13421631 C234.09973517 224.13124519 233.28510267 224.12827406 232.44578433 224.12521291 C229.71840307 224.11654726 226.99106581 224.11501947 224.26367188 224.11352539 C222.30711778 224.10889572 220.35056459 224.10387085 218.39401245 224.09848022 C213.07982447 224.08536883 207.76564911 224.07891375 202.45144749 224.07446957 C199.13013349 224.07153687 195.80882294 224.0674317 192.48751068 224.06296539 C182.09230988 224.04929393 171.69711695 224.03962549 161.30190778 224.0357635 C149.30875075 224.03128315 137.31570771 224.0137348 125.32258534 223.98476291 C116.04768365 223.96313638 106.77281401 223.9530587 97.49788737 223.95172238 C91.96047376 223.95067508 86.42316736 223.94478297 80.88578033 223.92690277 C75.67534413 223.91040532 70.46509553 223.90827478 65.25464249 223.91704178 C63.34592053 223.91781125 61.43718842 223.91348138 59.52849197 223.90358353 C56.91519634 223.89083024 54.30256184 223.896759 51.68927002 223.90716553 C50.94070653 223.89910912 50.19214304 223.89105272 49.42089581 223.88275218 C42.70140836 223.94498611 35.58377315 224.98829786 31.04785156 230.3371582 Z M-19.86621094 305.90356445 C-22.52969412 308.93115676 -25.27078019 311.88251385 -28.01464844 314.8371582 C-32.09615619 319.23568853 -36.09921208 323.67253977 -39.95214844 328.2746582 C-43.27650636 325.55727574 -46.39024017 323.00684171 -49.01464844 319.5871582 C-52.21730925 315.76462756 -55.43428993 314.47141764 -60.32714844 313.8371582 C-66.24020229 314.55080263 -70.2942601 316.57532266 -74.45214844 320.8371582 C-76.54787285 325.63985999 -77.20370291 330.14732215 -75.95214844 335.2746582 C-72.30502816 341.32996703 -67.19846325 346.39191519 -62.32714844 351.4621582 C-58.35202803 355.62116705 -54.53633861 359.76953028 -50.95214844 364.2746582 C-47.38165414 366.90554874 -44.38459294 368.00871153 -39.95214844 368.2746582 C-32.05040639 366.74976062 -28.12195841 362.62115346 -23.10449219 356.74731445 C-20.44929869 353.69697419 -17.70468568 350.73700155 -14.95214844 347.7746582 C-11.18552269 343.71416996 -7.47625042 339.62122741 -3.85839844 335.42700195 C-1.79323957 333.09523446 0.32627097 330.82099913 2.45288086 328.54541016 C14.23679602 316.95010685 14.23679602 316.95010685 18.32519531 301.8137207 C17.77414873 296.76892805 15.04273912 294.17479457 11.42285156 290.8996582 C-2.5543095 284.16991399 -11.53414195 296.23308619 -19.86621094 305.90356445 Z M31.04785156 326.3371582 C27.62069337 331.37079681 27.39016496 335.25358372 28.04785156 341.2746582 C30.39577814 346.1511211 33.3354601 348.67803434 38.04785156 351.2746582 C42.38824521 352.46100683 46.71507892 352.42020901 51.18133545 352.4151001 C51.99596795 352.41807122 52.81060046 352.42104234 53.64991879 352.4241035 C56.37730006 352.43276915 59.10463732 352.43429694 61.83203125 352.43579102 C63.78858534 352.44042069 65.74513853 352.44544555 67.70169067 352.45083618 C73.01587866 352.46394758 78.33005401 352.47040266 83.64425564 352.47484684 C86.96556963 352.47777953 90.28688018 352.48188471 93.60819244 352.48635101 C104.00339325 352.50002248 114.39858618 352.50969092 124.79379535 352.5135529 C136.78695238 352.51803325 148.77999541 352.5355816 160.77311778 352.5645535 C170.04801947 352.58618003 179.32288912 352.5962577 188.59781575 352.59759402 C194.13522936 352.59864133 199.67253576 352.60453343 205.20992279 352.62241364 C210.420359 352.63891109 215.63060759 352.64104163 220.84106064 352.63227463 C222.74978259 352.63150516 224.65851471 352.63583502 226.56721115 352.64573288 C229.18050679 352.65848616 231.79314128 352.65255741 234.40643311 352.64215088 C235.52927834 352.65423549 235.52927834 352.65423549 236.67480731 352.66656423 C242.51168648 352.61250476 249.16699885 351.83418158 253.68206477 347.82272458 C257.71905408 343.06221636 258.40389088 339.88202372 258.32519531 333.8137207 C257.91408712 330.05005418 256.56498796 328.05675633 254.04785156 325.2746582 C247.84469117 320.39131917 242.58284755 320.1254444 234.91436768 320.13421631 C234.09973517 320.13124519 233.28510267 320.12827406 232.44578433 320.12521291 C229.71840307 320.11654726 226.99106581 320.11501947 224.26367188 320.11352539 C222.30711778 320.10889572 220.35056459 320.10387085 218.39401245 320.09848022 C213.07982447 320.08536883 207.76564911 320.07891375 202.45144749 320.07446957 C199.13013349 320.07153687 195.80882294 320.0674317 192.48751068 320.06296539 C182.09230988 320.04929393 171.69711695 320.03962549 161.30190778 320.0357635 C149.30875075 320.03128315 137.31570771 320.0137348 125.32258534 319.98476291 C116.04768365 319.96313638 106.77281401 319.9530587 97.49788737 319.95172238 C91.96047376 319.95067508 86.42316736 319.94478297 80.88578033 319.92690277 C75.67534413 319.91040532 70.46509553 319.90827478 65.25464249 319.91704178 C63.34592053 319.91781125 61.43718842 319.91348138 59.52849197 319.90358353 C56.91519634 319.89083024 54.30256184 319.896759 51.68927002 319.90716553 C50.94070653 319.89910912 50.19214304 319.89105272 49.42089581 319.88275218 C42.70140836 319.94498611 35.58377315 320.98829786 31.04785156 326.3371582 Z " fill="#920DF6" transform="translate(164.9521484375,15.725341796875)"/>
</svg>
